<svg xmlns="http://www.w3.org/2000/svg" xmlns:xlink="http://www.w3.org/1999/xlink" width="18" height="16" version="1.1" viewBox="0 0 18 16"><title>Spaceship</title><desc>Created with Sketch.</desc><defs><path id="path-1" d="M17.9994962,13.8635 C17.9994962,13.8595 17.9994962,13.856 17.9994962,13.8525 C17.9989924,13.836 17.9984887,13.8205 17.9974811,13.805 C17.9974811,13.8035 17.9974811,13.802 17.9969773,13.8005 C17.9964736,13.7865 17.995466,13.7715 17.9944584,13.757 C17.9939547,13.753 17.9939547,13.7495 17.9934509,13.7465 C17.9924433,13.7305 17.990932,13.715 17.9894207,13.7 C17.9889169,13.6975 17.9889169,13.695 17.9889169,13.693 C17.9874055,13.6795 17.9858942,13.6655 17.9838791,13.6515 C17.9833753,13.648 17.9828715,13.645 17.9823678,13.6415 C17.9803526,13.626 17.9783375,13.611 17.9763224,13.596 C17.9758186,13.593 17.9753149,13.5905 17.9748111,13.5875 L17.968262,13.548 L17.9667506,13.5385 C17.963728,13.5235 17.9607053,13.509 17.9576826,13.494 C17.9571788,13.491 17.9566751,13.4875 17.9561713,13.4845 C17.9531486,13.4715 17.9501259,13.458 17.9471033,13.4455 L17.9455919,13.437 C17.9420655,13.4225 17.938539,13.408 17.9345088,13.3935 C17.934005,13.3905 17.9329975,13.387 17.9319899,13.3835 C17.9284635,13.3705 17.924937,13.357 17.9214106,13.344 L17.9198992,13.338 C17.9153652,13.3235 17.911335,13.3095 17.906801,13.2945 C17.9052897,13.2915 17.9047859,13.2885 17.9032746,13.285 C17.8992443,13.271 17.8947103,13.2575 17.8901763,13.244 C17.8896725,13.243 17.8896725,13.242 17.8891688,13.241 C17.884131,13.227 17.8790932,13.2125 17.8740554,13.1985 C17.8725441,13.195 17.8715365,13.1915 17.8700252,13.188 C17.8649874,13.174 17.8594458,13.16 17.8539043,13.1455 L17.8534005,13.145 C17.8478589,13.131 17.8423174,13.1175 17.8367758,13.1035 C17.8352645,13.1005 17.8337531,13.0975 17.8322418,13.094 C17.8261965,13.0805 17.8206549,13.0665 17.8141058,13.053 L17.8120907,13.0485 C17.8065491,13.036 17.8005038,13.0235 17.7944584,13.0115 C17.7934509,13.008 17.7914358,13.005 17.7899244,13.002 C17.7838791,12.9885 17.77733,12.9755 17.7702771,12.962 C17.7692695,12.96 17.768262,12.958 17.7667506,12.9565 C17.7607053,12.9445 17.7546599,12.933 17.7486146,12.921 C17.7471033,12.918 17.7455919,12.9155 17.7435768,12.913 C17.7375315,12.901 17.7309824,12.89 17.7244332,12.878 L17.7214106,12.8735 C17.7209068,12.8725 17.720403,12.8715 17.7193955,12.87 L17.7153652,12.862 L17.6095718,12.681 L14.2720403,6.9555 L10.8307305,1.0515 C10.4670025,0.4235 9.78337531,0 9,0 C8.21662469,0 7.5324937,0.4235 7.16876574,1.0515 L3.72745592,6.9555 L0.390428212,12.681 L0.284634761,12.862 L0.280100756,12.87 L0.278085642,12.8735 L0.275566751,12.878 C0.269017632,12.89 0.262468514,12.901 0.255919395,12.913 C0.25440806,12.9155 0.252896725,12.918 0.25138539,12.921 C0.244836272,12.933 0.238790932,12.9445 0.232745592,12.9565 C0.231738035,12.958 0.230730479,12.96 0.229722922,12.962 C0.222670025,12.9755 0.216120907,12.9885 0.209571788,13.002 C0.208060453,13.005 0.206549118,13.008 0.205037783,13.0115 C0.199496222,13.0235 0.193450882,13.036 0.18790932,13.0485 L0.185390428,13.053 C0.179345088,13.0665 0.173299748,13.0805 0.167758186,13.094 C0.166246851,13.0975 0.164735516,13.1005 0.163224181,13.1035 C0.157178841,13.1175 0.152141058,13.131 0.146599496,13.145 L0.146095718,13.1455 L0.129471033,13.188 L0.125944584,13.1985 C0.120906801,13.2125 0.115365239,13.227 0.110831234,13.241 C0.110327456,13.242 0.110327456,13.243 0.109823678,13.244 C0.104785894,13.2575 0.100755668,13.271 0.0962216625,13.285 L0.0931989924,13.2945 C0.0886649874,13.3095 0.0841309824,13.3235 0.0801007557,13.338 C0.0795969773,13.34 0.079093199,13.342 0.0785894207,13.344 C0.074559194,13.357 0.0715365239,13.3705 0.0675062972,13.3835 C0.0670025189,13.387 0.0659949622,13.3905 0.0649874055,13.3935 C0.0614609572,13.408 0.0579345088,13.4225 0.0544080605,13.437 L0.0523929471,13.4455 C0.0493702771,13.458 0.0468513854,13.4715 0.0438287154,13.4845 C0.043324937,13.4875 0.0423173804,13.491 0.041813602,13.494 C0.038790932,13.509 0.035768262,13.5235 0.0332493703,13.5385 C0.0327455919,13.5415 0.0322418136,13.5445 0.0317380353,13.548 C0.0292191436,13.5615 0.0272040302,13.5745 0.0251889169,13.5875 C0.0246851385,13.5905 0.0241813602,13.593 0.0236775819,13.596 C0.0211586902,13.611 0.0191435768,13.626 0.0171284635,13.6415 C0.0166246851,13.645 0.0166246851,13.648 0.0161209068,13.6515 C0.0141057935,13.6655 0.0125944584,13.6795 0.0110831234,13.693 C0.0110831234,13.695 0.0105793451,13.6975 0.0105793451,13.7 C0.00906801008,13.715 0.00755667506,13.7305 0.00654911839,13.7465 C0.00604534005,13.7495 0.00554156171,13.753 0.00554156171,13.757 C0.00453400504,13.7715 0.00352644836,13.7865 0.00251889169,13.8005 C0.00251889169,13.802 0.00251889169,13.8035 0.00251889169,13.805 C0.00151133501,13.8205 0.00100755668,13.836 0.000503778338,13.8525 C0.000503778338,13.856 0.000503778338,13.8595 0,13.8635 C0,13.8795 0,13.895 0,13.9115 C0,15.065 0.944080605,16 2.10881612,16 C2.32997481,16 2.54256927,15.9665 2.74307305,15.904 L2.74307305,15.904 L8.66851385,13.964 C8.77279597,13.93 8.88413098,13.9115 9,13.9115 C9.11586902,13.9115 9.22720403,13.93 9.33098237,13.964 L15.256927,15.904 C15.456927,15.9665 15.6700252,16 15.8911839,16 C17.0559194,16 18,15.065 18,13.9115 C18,13.895 18,13.8795 17.9994962,13.8635"/></defs><g id="⚙️-Symbols" fill="none" fill-rule="evenodd" stroke="none" stroke-width="1"><g id="spaceship"><g id="TBM--logos/spaceship/icon"><mask id="mask-2" fill="#fff"><use xlink:href="#path-1"/></mask><use id="shape" fill="#FBFBFF" fill-rule="nonzero" xlink:href="#path-1"/></g></g></g></svg>